<svg width="207" height="152" viewBox="0 0 207 152" fill="none" xmlns="http://www.w3.org/2000/svg">
<path d="M8.064 69.008H13.92C14.56 69.008 15.2 69.08 15.84 69.224C16.48 69.368 17.048 69.608 17.544 69.944C18.056 70.28 18.464 70.72 18.768 71.264C19.088 71.808 19.248 72.488 19.248 73.304C19.248 74.248 18.976 75.04 18.432 75.68C17.888 76.32 17.168 76.76 16.272 77V77.048C16.816 77.112 17.32 77.256 17.784 77.48C18.248 77.688 18.648 77.968 18.984 78.32C19.32 78.672 19.576 79.088 19.752 79.568C19.944 80.048 20.04 80.584 20.04 81.176C20.04 81.992 19.872 82.704 19.536 83.312C19.2 83.92 18.744 84.424 18.168 84.824C17.592 85.208 16.912 85.504 16.128 85.712C15.36 85.904 14.536 86 13.656 86H8.064V69.008ZM10.44 76.184H13.536C13.984 76.184 14.408 76.136 14.808 76.04C15.224 75.928 15.584 75.768 15.888 75.56C16.192 75.336 16.432 75.064 16.608 74.744C16.784 74.408 16.872 74.008 16.872 73.544C16.872 72.632 16.536 71.984 15.864 71.6C15.192 71.2 14.288 71 13.152 71H10.44V76.184ZM10.44 83.984H13.416C13.912 83.984 14.408 83.944 14.904 83.864C15.416 83.768 15.872 83.608 16.272 83.384C16.688 83.16 17.016 82.864 17.256 82.496C17.512 82.112 17.64 81.632 17.64 81.056C17.64 80.048 17.296 79.32 16.608 78.872C15.92 78.424 14.928 78.2 13.632 78.2H10.44V83.984ZM28.5264 86.336C27.6944 86.336 26.9504 86.208 26.2944 85.952C25.6384 85.68 25.0864 85.32 24.6384 84.872C24.1904 84.408 23.8464 83.864 23.6064 83.24C23.3824 82.616 23.2704 81.936 23.2704 81.2V73.136H25.5744V81.032C25.5744 81.464 25.6224 81.872 25.7184 82.256C25.8304 82.64 25.9984 82.984 26.2224 83.288C26.4624 83.592 26.7664 83.832 27.1344 84.008C27.5184 84.184 27.9824 84.272 28.5264 84.272C29.0704 84.272 29.5264 84.184 29.8944 84.008C30.2784 83.832 30.5904 83.592 30.8304 83.288C31.0704 82.984 31.2384 82.64 31.3344 82.256C31.4464 81.872 31.5024 81.464 31.5024 81.032V73.136H33.8064V81.2C33.8064 81.936 33.6864 82.616 33.4464 83.24C33.2064 83.864 32.8624 84.408 32.4144 84.872C31.9664 85.32 31.4144 85.68 30.7584 85.952C30.1024 86.208 29.3584 86.336 28.5264 86.336ZM43.9999 75.944C43.7279 75.592 43.3679 75.312 42.9199 75.104C42.4719 74.88 41.9919 74.768 41.4799 74.768C40.9039 74.768 40.4079 74.92 39.9919 75.224C39.5919 75.512 39.3919 75.936 39.3919 76.496C39.3919 76.784 39.4399 77.032 39.5359 77.24C39.6479 77.432 39.7999 77.6 39.9919 77.744C40.1999 77.888 40.4479 78.024 40.7359 78.152C41.0239 78.264 41.3519 78.376 41.7199 78.488C42.1679 78.632 42.6159 78.8 43.0639 78.992C43.5279 79.184 43.9359 79.424 44.2879 79.712C44.6559 80 44.9519 80.36 45.1759 80.792C45.3999 81.208 45.5119 81.72 45.5119 82.328C45.5119 83.016 45.3919 83.616 45.1519 84.128C44.9119 84.624 44.5839 85.04 44.1679 85.376C43.7519 85.696 43.2719 85.936 42.7279 86.096C42.1839 86.256 41.5999 86.336 40.9759 86.336C40.0639 86.336 39.2079 86.16 38.4079 85.808C37.6239 85.456 36.9839 84.968 36.4879 84.344L38.0719 82.88C38.4559 83.392 38.9199 83.76 39.4639 83.984C40.0079 84.208 40.5279 84.32 41.0239 84.32C41.6319 84.32 42.1519 84.184 42.5839 83.912C43.0319 83.624 43.2559 83.192 43.2559 82.616C43.2559 81.976 43.0079 81.496 42.5119 81.176C42.0319 80.856 41.3439 80.56 40.4479 80.288C40.0319 80.16 39.6239 80.008 39.2239 79.832C38.8239 79.656 38.4639 79.432 38.1439 79.16C37.8399 78.888 37.5919 78.552 37.3999 78.152C37.2079 77.752 37.1119 77.256 37.1119 76.664C37.1119 76.008 37.2399 75.44 37.4959 74.96C37.7519 74.464 38.0879 74.056 38.5039 73.736C38.9359 73.416 39.4239 73.184 39.9679 73.04C40.5119 72.88 41.0639 72.8 41.6239 72.8C42.4239 72.8 43.1519 72.944 43.8079 73.232C44.4639 73.52 45.0159 73.912 45.4639 74.408L43.9999 75.944ZM60.2582 86H57.8822V71.096H52.4342V69.008H65.7062V71.096H60.2582V86ZM68.07 86H65.766V73.136H70.35C70.99 73.136 71.59 73.2 72.15 73.328C72.726 73.44 73.23 73.632 73.662 73.904C74.094 74.176 74.43 74.544 74.67 75.008C74.926 75.472 75.054 76.04 75.054 76.712C75.054 77.656 74.79 78.424 74.262 79.016C73.75 79.608 73.078 80.016 72.246 80.24L75.582 86H72.918L69.918 80.576H68.07V86ZM68.07 78.704H70.062C70.414 78.704 70.75 78.672 71.07 78.608C71.39 78.544 71.67 78.44 71.91 78.296C72.166 78.136 72.366 77.936 72.51 77.696C72.654 77.456 72.726 77.152 72.726 76.784C72.726 76.448 72.654 76.168 72.51 75.944C72.382 75.72 72.198 75.544 71.958 75.416C71.734 75.272 71.47 75.176 71.166 75.128C70.862 75.08 70.542 75.056 70.206 75.056H68.07V78.704ZM80.6794 86H78.3754V73.136H80.6794V86ZM84.7035 73.136H89.1675C90.6555 73.136 91.8235 73.48 92.6715 74.168C93.5195 74.84 93.9435 75.808 93.9435 77.072C93.9435 78.384 93.5035 79.392 92.6235 80.096C91.7435 80.784 90.5675 81.128 89.0955 81.128H87.0075V86H84.7035V73.136ZM87.0075 79.256H88.9515C89.7675 79.256 90.4155 79.08 90.8955 78.728C91.3915 78.376 91.6395 77.84 91.6395 77.12C91.6395 76.448 91.4155 75.936 90.9675 75.584C90.5195 75.232 89.8795 75.056 89.0475 75.056H87.0075V79.256Z" fill="#333333"/>
<path d="M8.158 113.168H12.448V114H7.222V104.796H8.158V113.168ZM20.1334 110.958C20.1334 111.417 20.0511 111.842 19.8864 112.232C19.7304 112.622 19.5094 112.96 19.2234 113.246C18.9374 113.532 18.5951 113.757 18.1964 113.922C17.7978 114.078 17.3601 114.156 16.8834 114.156C16.4154 114.156 15.9821 114.078 15.5834 113.922C15.1848 113.757 14.8424 113.532 14.5564 113.246C14.2704 112.96 14.0451 112.622 13.8804 112.232C13.7244 111.842 13.6464 111.417 13.6464 110.958C13.6464 110.499 13.7244 110.074 13.8804 109.684C14.0451 109.294 14.2704 108.956 14.5564 108.67C14.8424 108.384 15.1848 108.163 15.5834 108.007C15.9821 107.842 16.4154 107.76 16.8834 107.76C17.3601 107.76 17.7978 107.842 18.1964 108.007C18.5951 108.163 18.9374 108.384 19.2234 108.67C19.5094 108.956 19.7304 109.294 19.8864 109.684C20.0511 110.074 20.1334 110.499 20.1334 110.958ZM19.1974 110.958C19.1974 110.62 19.1411 110.304 19.0284 110.009C18.9244 109.706 18.7728 109.446 18.5734 109.229C18.3741 109.004 18.1314 108.826 17.8454 108.696C17.5594 108.566 17.2388 108.501 16.8834 108.501C16.5281 108.501 16.2074 108.566 15.9214 108.696C15.6441 108.826 15.4058 109.004 15.2064 109.229C15.0071 109.446 14.8511 109.706 14.7384 110.009C14.6344 110.304 14.5824 110.62 14.5824 110.958C14.5824 111.296 14.6344 111.617 14.7384 111.92C14.8511 112.215 15.0071 112.475 15.2064 112.7C15.4058 112.917 15.6441 113.09 15.9214 113.22C16.2074 113.341 16.5281 113.402 16.8834 113.402C17.2388 113.402 17.5594 113.341 17.8454 113.22C18.1314 113.09 18.3741 112.917 18.5734 112.7C18.7728 112.475 18.9244 112.215 19.0284 111.92C19.1411 111.617 19.1974 111.296 19.1974 110.958ZM22.5557 109.255C22.5557 109.09 22.5514 108.878 22.5427 108.618C22.534 108.358 22.521 108.124 22.5037 107.916H23.3487C23.366 108.081 23.379 108.263 23.3877 108.462C23.3964 108.661 23.4007 108.826 23.4007 108.956H23.4267C23.6 108.601 23.86 108.315 24.2067 108.098C24.5534 107.873 24.9434 107.76 25.3767 107.76C25.4894 107.76 25.589 107.764 25.6757 107.773C25.771 107.782 25.8664 107.799 25.9617 107.825L25.8447 108.657C25.7927 108.64 25.706 108.622 25.5847 108.605C25.4634 108.588 25.342 108.579 25.2207 108.579C24.9867 108.579 24.7614 108.622 24.5447 108.709C24.328 108.796 24.1374 108.934 23.9727 109.125C23.8167 109.307 23.6867 109.545 23.5827 109.84C23.4874 110.126 23.4397 110.473 23.4397 110.88V114H22.5557V109.255ZM32.1728 110.49C32.1468 109.918 31.9604 109.446 31.6138 109.073C31.2758 108.692 30.7904 108.501 30.1578 108.501C29.8631 108.501 29.5901 108.557 29.3388 108.67C29.0874 108.774 28.8664 108.921 28.6758 109.112C28.4851 109.294 28.3334 109.506 28.2208 109.749C28.1081 109.983 28.0431 110.23 28.0258 110.49H32.1728ZM33.0698 110.776C33.0698 110.837 33.0698 110.902 33.0698 110.971C33.0698 111.04 33.0654 111.114 33.0568 111.192H28.0128C28.0214 111.495 28.0821 111.781 28.1948 112.05C28.3074 112.319 28.4634 112.553 28.6628 112.752C28.8621 112.951 29.0961 113.112 29.3648 113.233C29.6334 113.346 29.9238 113.402 30.2358 113.402C30.6951 113.402 31.0894 113.298 31.4188 113.09C31.7568 112.873 32.0124 112.626 32.1858 112.349L32.8488 112.869C32.4848 113.328 32.0818 113.658 31.6398 113.857C31.2064 114.056 30.7384 114.156 30.2358 114.156C29.7851 114.156 29.3648 114.078 28.9748 113.922C28.5934 113.757 28.2641 113.532 27.9868 113.246C27.7094 112.96 27.4884 112.622 27.3238 112.232C27.1678 111.842 27.0898 111.417 27.0898 110.958C27.0898 110.499 27.1678 110.074 27.3238 109.684C27.4798 109.294 27.6964 108.956 27.9738 108.67C28.2511 108.384 28.5761 108.163 28.9488 108.007C29.3214 107.842 29.7244 107.76 30.1578 107.76C30.6344 107.76 31.0548 107.842 31.4188 108.007C31.7828 108.163 32.0861 108.38 32.3288 108.657C32.5714 108.926 32.7534 109.242 32.8748 109.606C33.0048 109.97 33.0698 110.36 33.0698 110.776ZM36.3622 108.956C36.5355 108.601 36.7999 108.315 37.1552 108.098C37.5192 107.873 37.9222 107.76 38.3642 107.76C38.5289 107.76 38.6979 107.777 38.8712 107.812C39.0532 107.847 39.2265 107.916 39.3912 108.02C39.5645 108.115 39.7205 108.245 39.8592 108.41C40.0065 108.575 40.1322 108.787 40.2362 109.047C40.4442 108.631 40.7259 108.315 41.0812 108.098C41.4452 107.873 41.8742 107.76 42.3682 107.76C43.1395 107.76 43.7159 107.99 44.0972 108.449C44.4872 108.908 44.6822 109.515 44.6822 110.269V114H43.7982V110.633C43.7982 109.992 43.6769 109.476 43.4342 109.086C43.2002 108.696 42.7972 108.501 42.2252 108.501C41.9045 108.501 41.6315 108.566 41.4062 108.696C41.1895 108.826 41.0119 108.999 40.8732 109.216C40.7432 109.424 40.6479 109.662 40.5872 109.931C40.5265 110.2 40.4962 110.477 40.4962 110.763V114H39.6122V110.451C39.6122 110.156 39.5905 109.888 39.5472 109.645C39.5039 109.402 39.4259 109.199 39.3132 109.034C39.2092 108.861 39.0619 108.731 38.8712 108.644C38.6805 108.549 38.4379 108.501 38.1432 108.501C37.9352 108.501 37.7229 108.549 37.5062 108.644C37.2982 108.739 37.1075 108.887 36.9342 109.086C36.7695 109.277 36.6352 109.524 36.5312 109.827C36.4272 110.122 36.3752 110.473 36.3752 110.88V114H35.4912V109.255C35.4912 109.09 35.4869 108.878 35.4782 108.618C35.4695 108.358 35.4565 108.124 35.4392 107.916H36.2842C36.3015 108.081 36.3145 108.263 36.3232 108.462C36.3319 108.661 36.3362 108.826 36.3362 108.956H36.3622ZM52.1548 114H51.2708V107.916H52.1548V114ZM52.3368 105.576C52.3368 105.758 52.2718 105.91 52.1418 106.031C52.0118 106.144 51.8688 106.2 51.7128 106.2C51.5568 106.2 51.4138 106.144 51.2838 106.031C51.1538 105.91 51.0888 105.758 51.0888 105.576C51.0888 105.394 51.1538 105.247 51.2838 105.134C51.4138 105.013 51.5568 104.952 51.7128 104.952C51.8688 104.952 52.0118 105.013 52.1418 105.134C52.2718 105.247 52.3368 105.394 52.3368 105.576ZM55.9118 117.12H55.0278V107.916H55.9118V108.969H55.9508C56.2021 108.57 56.5358 108.271 56.9518 108.072C57.3764 107.864 57.8054 107.76 58.2388 107.76C58.7154 107.76 59.1444 107.842 59.5258 108.007C59.9158 108.172 60.2451 108.397 60.5138 108.683C60.7911 108.969 61.0034 109.307 61.1508 109.697C61.3068 110.087 61.3848 110.507 61.3848 110.958C61.3848 111.409 61.3068 111.829 61.1508 112.219C61.0034 112.609 60.7911 112.947 60.5138 113.233C60.2451 113.519 59.9158 113.744 59.5258 113.909C59.1444 114.074 58.7154 114.156 58.2388 114.156C57.8054 114.156 57.3764 114.056 56.9518 113.857C56.5358 113.649 56.2021 113.354 55.9508 112.973H55.9118V117.12ZM60.4488 110.958C60.4488 110.62 60.3968 110.304 60.2928 110.009C60.1888 109.706 60.0371 109.446 59.8378 109.229C59.6471 109.004 59.4088 108.826 59.1228 108.696C58.8368 108.566 58.5118 108.501 58.1478 108.501C57.8098 108.501 57.4978 108.566 57.2118 108.696C56.9258 108.817 56.6788 108.991 56.4708 109.216C56.2628 109.433 56.0981 109.693 55.9768 109.996C55.8641 110.291 55.8078 110.611 55.8078 110.958C55.8078 111.305 55.8641 111.63 55.9768 111.933C56.0981 112.228 56.2628 112.483 56.4708 112.7C56.6788 112.917 56.9258 113.09 57.2118 113.22C57.4978 113.341 57.8098 113.402 58.1478 113.402C58.5118 113.402 58.8368 113.341 59.1228 113.22C59.4088 113.09 59.6471 112.917 59.8378 112.7C60.0371 112.475 60.1888 112.215 60.2928 111.92C60.3968 111.617 60.4488 111.296 60.4488 110.958ZM67.0367 109.359C66.9067 109.108 66.7074 108.904 66.4387 108.748C66.1787 108.583 65.8797 108.501 65.5417 108.501C65.3857 108.501 65.2297 108.518 65.0737 108.553C64.9177 108.588 64.7791 108.644 64.6577 108.722C64.5364 108.8 64.4367 108.9 64.3587 109.021C64.2894 109.142 64.2547 109.285 64.2547 109.45C64.2547 109.736 64.3717 109.957 64.6057 110.113C64.8397 110.26 65.2081 110.386 65.7107 110.49C66.4301 110.637 66.9587 110.854 67.2967 111.14C67.6434 111.417 67.8167 111.794 67.8167 112.271C67.8167 112.618 67.7474 112.912 67.6087 113.155C67.4787 113.389 67.3054 113.584 67.0887 113.74C66.8721 113.887 66.6251 113.991 66.3477 114.052C66.0791 114.121 65.8061 114.156 65.5287 114.156C65.0694 114.156 64.6231 114.061 64.1897 113.87C63.7564 113.679 63.4011 113.38 63.1237 112.973L63.8257 112.453C63.9817 112.722 64.2114 112.947 64.5147 113.129C64.8181 113.311 65.1517 113.402 65.5157 113.402C65.7064 113.402 65.8884 113.385 66.0617 113.35C66.2351 113.315 66.3867 113.255 66.5167 113.168C66.6467 113.081 66.7507 112.973 66.8287 112.843C66.9067 112.704 66.9457 112.535 66.9457 112.336C66.9457 112.015 66.7897 111.777 66.4777 111.621C66.1744 111.456 65.7324 111.305 65.1517 111.166C64.9697 111.123 64.7747 111.071 64.5667 111.01C64.3674 110.941 64.1811 110.845 64.0077 110.724C63.8344 110.594 63.6914 110.434 63.5787 110.243C63.4661 110.052 63.4097 109.814 63.4097 109.528C63.4097 109.216 63.4704 108.952 63.5917 108.735C63.7131 108.51 63.8734 108.328 64.0727 108.189C64.2807 108.042 64.5147 107.933 64.7747 107.864C65.0347 107.795 65.3034 107.76 65.5807 107.76C66.0054 107.76 66.4171 107.855 66.8157 108.046C67.2144 108.237 67.5134 108.505 67.7127 108.852L67.0367 109.359ZM74.5161 114C74.4988 113.835 74.4858 113.653 74.4771 113.454C74.4684 113.255 74.4641 113.09 74.4641 112.96H74.4381C74.2648 113.315 73.9831 113.606 73.5931 113.831C73.2031 114.048 72.7914 114.156 72.3581 114.156C71.5868 114.156 71.0061 113.926 70.6161 113.467C70.2348 113.008 70.0441 112.401 70.0441 111.647V107.916H70.9281V111.283C70.9281 111.604 70.9541 111.894 71.0061 112.154C71.0581 112.414 71.1448 112.639 71.2661 112.83C71.3961 113.012 71.5651 113.155 71.7731 113.259C71.9898 113.363 72.2584 113.415 72.5791 113.415C72.8131 113.415 73.0384 113.367 73.2551 113.272C73.4804 113.177 73.6798 113.034 73.8531 112.843C74.0264 112.644 74.1651 112.397 74.2691 112.102C74.3731 111.799 74.4251 111.443 74.4251 111.036V107.916H75.3091V112.661C75.3091 112.826 75.3134 113.038 75.3221 113.298C75.3308 113.558 75.3438 113.792 75.3611 114H74.5161ZM79.0408 108.956C79.2141 108.601 79.4785 108.315 79.8338 108.098C80.1978 107.873 80.6008 107.76 81.0428 107.76C81.2075 107.76 81.3765 107.777 81.5498 107.812C81.7318 107.847 81.9051 107.916 82.0698 108.02C82.2431 108.115 82.3991 108.245 82.5378 108.41C82.6851 108.575 82.8108 108.787 82.9148 109.047C83.1228 108.631 83.4045 108.315 83.7598 108.098C84.1238 107.873 84.5528 107.76 85.0468 107.76C85.8181 107.76 86.3945 107.99 86.7758 108.449C87.1658 108.908 87.3608 109.515 87.3608 110.269V114H86.4768V110.633C86.4768 109.992 86.3555 109.476 86.1128 109.086C85.8788 108.696 85.4758 108.501 84.9038 108.501C84.5831 108.501 84.3101 108.566 84.0848 108.696C83.8681 108.826 83.6905 108.999 83.5518 109.216C83.4218 109.424 83.3265 109.662 83.2658 109.931C83.2051 110.2 83.1748 110.477 83.1748 110.763V114H82.2908V110.451C82.2908 110.156 82.2691 109.888 82.2258 109.645C82.1825 109.402 82.1045 109.199 81.9918 109.034C81.8878 108.861 81.7405 108.731 81.5498 108.644C81.3591 108.549 81.1165 108.501 80.8218 108.501C80.6138 108.501 80.4015 108.549 80.1848 108.644C79.9768 108.739 79.7861 108.887 79.6128 109.086C79.4481 109.277 79.3138 109.524 79.2098 109.827C79.1058 110.122 79.0538 110.473 79.0538 110.88V114H78.1698V109.255C78.1698 109.09 78.1655 108.878 78.1568 108.618C78.1481 108.358 78.1351 108.124 78.1178 107.916H78.9628C78.9801 108.081 78.9931 108.263 79.0018 108.462C79.0105 108.661 79.0148 108.826 79.0148 108.956H79.0408ZM98.9414 112.973C98.6814 113.363 98.3434 113.658 97.9274 113.857C97.5114 114.056 97.0824 114.156 96.6404 114.156C96.1637 114.156 95.7304 114.074 95.3404 113.909C94.959 113.744 94.6297 113.519 94.3524 113.233C94.0837 112.947 93.8714 112.609 93.7154 112.219C93.568 111.829 93.4944 111.409 93.4944 110.958C93.4944 110.507 93.568 110.087 93.7154 109.697C93.8714 109.307 94.0837 108.969 94.3524 108.683C94.6297 108.397 94.959 108.172 95.3404 108.007C95.7304 107.842 96.1637 107.76 96.6404 107.76C97.0824 107.76 97.5114 107.864 97.9274 108.072C98.3434 108.271 98.6814 108.57 98.9414 108.969H98.9674V104.172H99.8514V114H98.9674V112.973H98.9414ZM94.4304 110.958C94.4304 111.296 94.4824 111.617 94.5864 111.92C94.6904 112.215 94.8377 112.475 95.0284 112.7C95.2277 112.917 95.4704 113.09 95.7564 113.22C96.0424 113.341 96.3674 113.402 96.7314 113.402C97.0694 113.402 97.3814 113.341 97.6674 113.22C97.9534 113.09 98.2004 112.917 98.4084 112.7C98.6164 112.483 98.7767 112.228 98.8894 111.933C99.0107 111.63 99.0714 111.305 99.0714 110.958C99.0714 110.611 99.0107 110.291 98.8894 109.996C98.7767 109.693 98.6164 109.433 98.4084 109.216C98.2004 108.991 97.9534 108.817 97.6674 108.696C97.3814 108.566 97.0694 108.501 96.7314 108.501C96.3674 108.501 96.0424 108.566 95.7564 108.696C95.4704 108.826 95.2277 109.004 95.0284 109.229C94.8377 109.446 94.6904 109.706 94.5864 110.009C94.4824 110.304 94.4304 110.62 94.4304 110.958ZM108.779 110.958C108.779 111.417 108.696 111.842 108.532 112.232C108.376 112.622 108.155 112.96 107.869 113.246C107.583 113.532 107.24 113.757 106.842 113.922C106.443 114.078 106.005 114.156 105.529 114.156C105.061 114.156 104.627 114.078 104.229 113.922C103.83 113.757 103.488 113.532 103.202 113.246C102.916 112.96 102.69 112.622 102.526 112.232C102.37 111.842 102.292 111.417 102.292 110.958C102.292 110.499 102.37 110.074 102.526 109.684C102.69 109.294 102.916 108.956 103.202 108.67C103.488 108.384 103.83 108.163 104.229 108.007C104.627 107.842 105.061 107.76 105.529 107.76C106.005 107.76 106.443 107.842 106.842 108.007C107.24 108.163 107.583 108.384 107.869 108.67C108.155 108.956 108.376 109.294 108.532 109.684C108.696 110.074 108.779 110.499 108.779 110.958ZM107.843 110.958C107.843 110.62 107.786 110.304 107.674 110.009C107.57 109.706 107.418 109.446 107.219 109.229C107.019 109.004 106.777 108.826 106.491 108.696C106.205 108.566 105.884 108.501 105.529 108.501C105.173 108.501 104.853 108.566 104.567 108.696C104.289 108.826 104.051 109.004 103.852 109.229C103.652 109.446 103.496 109.706 103.384 110.009C103.28 110.304 103.228 110.62 103.228 110.958C103.228 111.296 103.28 111.617 103.384 111.92C103.496 112.215 103.652 112.475 103.852 112.7C104.051 112.917 104.289 113.09 104.567 113.22C104.853 113.341 105.173 113.402 105.529 113.402C105.884 113.402 106.205 113.341 106.491 113.22C106.777 113.09 107.019 112.917 107.219 112.7C107.418 112.475 107.57 112.215 107.674 111.92C107.786 111.617 107.843 111.296 107.843 110.958ZM112.111 114H111.227V104.172H112.111V114ZM121.041 110.958C121.041 111.417 120.959 111.842 120.794 112.232C120.638 112.622 120.417 112.96 120.131 113.246C119.845 113.532 119.503 113.757 119.104 113.922C118.706 114.078 118.268 114.156 117.791 114.156C117.323 114.156 116.89 114.078 116.491 113.922C116.093 113.757 115.75 113.532 115.464 113.246C115.178 112.96 114.953 112.622 114.788 112.232C114.632 111.842 114.554 111.417 114.554 110.958C114.554 110.499 114.632 110.074 114.788 109.684C114.953 109.294 115.178 108.956 115.464 108.67C115.75 108.384 116.093 108.163 116.491 108.007C116.89 107.842 117.323 107.76 117.791 107.76C118.268 107.76 118.706 107.842 119.104 108.007C119.503 108.163 119.845 108.384 120.131 108.67C120.417 108.956 120.638 109.294 120.794 109.684C120.959 110.074 121.041 110.499 121.041 110.958ZM120.105 110.958C120.105 110.62 120.049 110.304 119.936 110.009C119.832 109.706 119.681 109.446 119.481 109.229C119.282 109.004 119.039 108.826 118.753 108.696C118.467 108.566 118.147 108.501 117.791 108.501C117.436 108.501 117.115 108.566 116.829 108.696C116.552 108.826 116.314 109.004 116.114 109.229C115.915 109.446 115.759 109.706 115.646 110.009C115.542 110.304 115.49 110.62 115.49 110.958C115.49 111.296 115.542 111.617 115.646 111.92C115.759 112.215 115.915 112.475 116.114 112.7C116.314 112.917 116.552 113.09 116.829 113.22C117.115 113.341 117.436 113.402 117.791 113.402C118.147 113.402 118.467 113.341 118.753 113.22C119.039 113.09 119.282 112.917 119.481 112.7C119.681 112.475 119.832 112.215 119.936 111.92C120.049 111.617 120.105 111.296 120.105 110.958ZM123.464 109.255C123.464 109.09 123.459 108.878 123.451 108.618C123.442 108.358 123.429 108.124 123.412 107.916H124.257C124.274 108.081 124.287 108.263 124.296 108.462C124.304 108.661 124.309 108.826 124.309 108.956H124.335C124.508 108.601 124.768 108.315 125.115 108.098C125.461 107.873 125.851 107.76 126.285 107.76C126.397 107.76 126.497 107.764 126.584 107.773C126.679 107.782 126.774 107.799 126.87 107.825L126.753 108.657C126.701 108.64 126.614 108.622 126.493 108.605C126.371 108.588 126.25 108.579 126.129 108.579C125.895 108.579 125.669 108.622 125.453 108.709C125.236 108.796 125.045 108.934 124.881 109.125C124.725 109.307 124.595 109.545 124.491 109.84C124.395 110.126 124.348 110.473 124.348 110.88V114H123.464V109.255ZM135.675 109.359C135.545 109.108 135.346 108.904 135.077 108.748C134.817 108.583 134.518 108.501 134.18 108.501C134.024 108.501 133.868 108.518 133.712 108.553C133.556 108.588 133.418 108.644 133.296 108.722C133.175 108.8 133.075 108.9 132.997 109.021C132.928 109.142 132.893 109.285 132.893 109.45C132.893 109.736 133.01 109.957 133.244 110.113C133.478 110.26 133.847 110.386 134.349 110.49C135.069 110.637 135.597 110.854 135.935 111.14C136.282 111.417 136.455 111.794 136.455 112.271C136.455 112.618 136.386 112.912 136.247 113.155C136.117 113.389 135.944 113.584 135.727 113.74C135.511 113.887 135.264 113.991 134.986 114.052C134.718 114.121 134.445 114.156 134.167 114.156C133.708 114.156 133.262 114.061 132.828 113.87C132.395 113.679 132.04 113.38 131.762 112.973L132.464 112.453C132.62 112.722 132.85 112.947 133.153 113.129C133.457 113.311 133.79 113.402 134.154 113.402C134.345 113.402 134.527 113.385 134.7 113.35C134.874 113.315 135.025 113.255 135.155 113.168C135.285 113.081 135.389 112.973 135.467 112.843C135.545 112.704 135.584 112.535 135.584 112.336C135.584 112.015 135.428 111.777 135.116 111.621C134.813 111.456 134.371 111.305 133.79 111.166C133.608 111.123 133.413 111.071 133.205 111.01C133.006 110.941 132.82 110.845 132.646 110.724C132.473 110.594 132.33 110.434 132.217 110.243C132.105 110.052 132.048 109.814 132.048 109.528C132.048 109.216 132.109 108.952 132.23 108.735C132.352 108.51 132.512 108.328 132.711 108.189C132.919 108.042 133.153 107.933 133.413 107.864C133.673 107.795 133.942 107.76 134.219 107.76C134.644 107.76 135.056 107.855 135.454 108.046C135.853 108.237 136.152 108.505 136.351 108.852L135.675 109.359ZM139.632 114H138.748V107.916H139.632V114ZM139.814 105.576C139.814 105.758 139.749 105.91 139.619 106.031C139.489 106.144 139.346 106.2 139.19 106.2C139.034 106.2 138.891 106.144 138.761 106.031C138.631 105.91 138.566 105.758 138.566 105.576C138.566 105.394 138.631 105.247 138.761 105.134C138.891 105.013 139.034 104.952 139.19 104.952C139.346 104.952 139.489 105.013 139.619 105.134C139.749 105.247 139.814 105.394 139.814 105.576ZM145.248 108.657H143.532V112.206C143.532 112.431 143.553 112.618 143.597 112.765C143.64 112.912 143.701 113.029 143.779 113.116C143.865 113.194 143.965 113.25 144.078 113.285C144.19 113.311 144.312 113.324 144.442 113.324C144.563 113.324 144.689 113.307 144.819 113.272C144.957 113.237 145.087 113.19 145.209 113.129L145.248 113.896C145.092 113.957 144.927 114 144.754 114.026C144.589 114.061 144.407 114.078 144.208 114.078C144.043 114.078 143.87 114.056 143.688 114.013C143.506 113.97 143.337 113.887 143.181 113.766C143.025 113.645 142.895 113.48 142.791 113.272C142.695 113.064 142.648 112.791 142.648 112.453V108.657H141.387V107.916H142.648V106.2H143.532V107.916H145.248V108.657ZM154.756 110.074C154.756 109.545 154.617 109.151 154.34 108.891C154.062 108.631 153.659 108.501 153.131 108.501C152.767 108.501 152.429 108.566 152.117 108.696C151.805 108.826 151.54 108.999 151.324 109.216L150.83 108.631C151.081 108.38 151.41 108.172 151.818 108.007C152.234 107.842 152.702 107.76 153.222 107.76C153.551 107.76 153.859 107.808 154.145 107.903C154.431 107.99 154.682 108.124 154.899 108.306C155.115 108.488 155.284 108.718 155.406 108.995C155.527 109.272 155.588 109.597 155.588 109.97V112.635C155.588 112.869 155.596 113.112 155.614 113.363C155.631 113.614 155.657 113.827 155.692 114H154.899C154.873 113.853 154.851 113.692 154.834 113.519C154.816 113.346 154.808 113.177 154.808 113.012H154.782C154.504 113.419 154.188 113.714 153.833 113.896C153.486 114.069 153.066 114.156 152.572 114.156C152.338 114.156 152.095 114.121 151.844 114.052C151.601 113.991 151.376 113.887 151.168 113.74C150.968 113.593 150.799 113.402 150.661 113.168C150.531 112.934 150.466 112.648 150.466 112.31C150.466 111.842 150.583 111.474 150.817 111.205C151.059 110.928 151.38 110.724 151.779 110.594C152.177 110.455 152.632 110.369 153.144 110.334C153.664 110.291 154.201 110.269 154.756 110.269V110.074ZM154.496 110.958C154.132 110.958 153.763 110.975 153.391 111.01C153.027 111.036 152.693 111.097 152.39 111.192C152.095 111.279 151.852 111.409 151.662 111.582C151.471 111.755 151.376 111.985 151.376 112.271C151.376 112.488 151.415 112.67 151.493 112.817C151.579 112.964 151.692 113.086 151.831 113.181C151.969 113.268 152.121 113.333 152.286 113.376C152.459 113.411 152.632 113.428 152.806 113.428C153.118 113.428 153.395 113.376 153.638 113.272C153.88 113.159 154.084 113.012 154.249 112.83C154.413 112.639 154.539 112.423 154.626 112.18C154.712 111.937 154.756 111.682 154.756 111.413V110.958H154.496ZM159.256 108.956C159.429 108.601 159.694 108.315 160.049 108.098C160.413 107.873 160.816 107.76 161.258 107.76C161.423 107.76 161.592 107.777 161.765 107.812C161.947 107.847 162.12 107.916 162.285 108.02C162.458 108.115 162.614 108.245 162.753 108.41C162.9 108.575 163.026 108.787 163.13 109.047C163.338 108.631 163.62 108.315 163.975 108.098C164.339 107.873 164.768 107.76 165.262 107.76C166.033 107.76 166.61 107.99 166.991 108.449C167.381 108.908 167.576 109.515 167.576 110.269V114H166.692V110.633C166.692 109.992 166.571 109.476 166.328 109.086C166.094 108.696 165.691 108.501 165.119 108.501C164.798 108.501 164.525 108.566 164.3 108.696C164.083 108.826 163.906 108.999 163.767 109.216C163.637 109.424 163.542 109.662 163.481 109.931C163.42 110.2 163.39 110.477 163.39 110.763V114H162.506V110.451C162.506 110.156 162.484 109.888 162.441 109.645C162.398 109.402 162.32 109.199 162.207 109.034C162.103 108.861 161.956 108.731 161.765 108.644C161.574 108.549 161.332 108.501 161.037 108.501C160.829 108.501 160.617 108.549 160.4 108.644C160.192 108.739 160.001 108.887 159.828 109.086C159.663 109.277 159.529 109.524 159.425 109.827C159.321 110.122 159.269 110.473 159.269 110.88V114H158.385V109.255C158.385 109.09 158.381 108.878 158.372 108.618C158.363 108.358 158.35 108.124 158.333 107.916H159.178C159.195 108.081 159.208 108.263 159.217 108.462C159.226 108.661 159.23 108.826 159.23 108.956H159.256ZM175.022 110.49C174.996 109.918 174.81 109.446 174.463 109.073C174.125 108.692 173.64 108.501 173.007 108.501C172.713 108.501 172.44 108.557 172.188 108.67C171.937 108.774 171.716 108.921 171.525 109.112C171.335 109.294 171.183 109.506 171.07 109.749C170.958 109.983 170.893 110.23 170.875 110.49H175.022ZM175.919 110.776C175.919 110.837 175.919 110.902 175.919 110.971C175.919 111.04 175.915 111.114 175.906 111.192H170.862C170.871 111.495 170.932 111.781 171.044 112.05C171.157 112.319 171.313 112.553 171.512 112.752C171.712 112.951 171.946 113.112 172.214 113.233C172.483 113.346 172.773 113.402 173.085 113.402C173.545 113.402 173.939 113.298 174.268 113.09C174.606 112.873 174.862 112.626 175.035 112.349L175.698 112.869C175.334 113.328 174.931 113.658 174.489 113.857C174.056 114.056 173.588 114.156 173.085 114.156C172.635 114.156 172.214 114.078 171.824 113.922C171.443 113.757 171.114 113.532 170.836 113.246C170.559 112.96 170.338 112.622 170.173 112.232C170.017 111.842 169.939 111.417 169.939 110.958C169.939 110.499 170.017 110.074 170.173 109.684C170.329 109.294 170.546 108.956 170.823 108.67C171.101 108.384 171.426 108.163 171.798 108.007C172.171 107.842 172.574 107.76 173.007 107.76C173.484 107.76 173.904 107.842 174.268 108.007C174.632 108.163 174.936 108.38 175.178 108.657C175.421 108.926 175.603 109.242 175.724 109.606C175.854 109.97 175.919 110.36 175.919 110.776ZM181.084 108.657H179.368V112.206C179.368 112.431 179.39 112.618 179.433 112.765C179.476 112.912 179.537 113.029 179.615 113.116C179.702 113.194 179.801 113.25 179.914 113.285C180.027 113.311 180.148 113.324 180.278 113.324C180.399 113.324 180.525 113.307 180.655 113.272C180.794 113.237 180.924 113.19 181.045 113.129L181.084 113.896C180.928 113.957 180.763 114 180.59 114.026C180.425 114.061 180.243 114.078 180.044 114.078C179.879 114.078 179.706 114.056 179.524 114.013C179.342 113.97 179.173 113.887 179.017 113.766C178.861 113.645 178.731 113.48 178.627 113.272C178.532 113.064 178.484 112.791 178.484 112.453V108.657H177.223V107.916H178.484V106.2H179.368V107.916H181.084V108.657ZM183.143 115.82H182.402L183.273 112.765H184.196L183.143 115.82ZM11.551 126.307C11.4037 126.073 11.187 125.882 10.901 125.735C10.6237 125.579 10.3203 125.501 9.991 125.501C9.63567 125.501 9.315 125.566 9.029 125.696C8.743 125.817 8.496 125.991 8.288 126.216C8.08867 126.433 7.93267 126.693 7.82 126.996C7.716 127.291 7.664 127.611 7.664 127.958C7.664 128.305 7.716 128.625 7.82 128.92C7.93267 129.215 8.08867 129.475 8.288 129.7C8.48733 129.917 8.73 130.09 9.016 130.22C9.302 130.341 9.62267 130.402 9.978 130.402C10.368 130.402 10.6973 130.328 10.966 130.181C11.2347 130.034 11.4557 129.843 11.629 129.609L12.292 130.103C12.032 130.424 11.7113 130.679 11.33 130.87C10.9573 131.061 10.5067 131.156 9.978 131.156C9.484 131.156 9.03767 131.078 8.639 130.922C8.24033 130.757 7.898 130.532 7.612 130.246C7.33467 129.96 7.118 129.622 6.962 129.232C6.806 128.842 6.728 128.417 6.728 127.958C6.728 127.499 6.806 127.074 6.962 126.684C7.118 126.294 7.33467 125.956 7.612 125.67C7.898 125.384 8.24033 125.163 8.639 125.007C9.03767 124.842 9.484 124.76 9.978 124.76C10.3853 124.76 10.797 124.851 11.213 125.033C11.6377 125.206 11.98 125.466 12.24 125.813L11.551 126.307ZM20.235 127.958C20.235 128.417 20.1527 128.842 19.988 129.232C19.832 129.622 19.611 129.96 19.325 130.246C19.039 130.532 18.6967 130.757 18.298 130.922C17.8993 131.078 17.4617 131.156 16.985 131.156C16.517 131.156 16.0837 131.078 15.685 130.922C15.2863 130.757 14.944 130.532 14.658 130.246C14.372 129.96 14.1467 129.622 13.982 129.232C13.826 128.842 13.748 128.417 13.748 127.958C13.748 127.499 13.826 127.074 13.982 126.684C14.1467 126.294 14.372 125.956 14.658 125.67C14.944 125.384 15.2863 125.163 15.685 125.007C16.0837 124.842 16.517 124.76 16.985 124.76C17.4617 124.76 17.8993 124.842 18.298 125.007C18.6967 125.163 19.039 125.384 19.325 125.67C19.611 125.956 19.832 126.294 19.988 126.684C20.1527 127.074 20.235 127.499 20.235 127.958ZM19.299 127.958C19.299 127.62 19.2427 127.304 19.13 127.009C19.026 126.706 18.8743 126.446 18.675 126.229C18.4757 126.004 18.233 125.826 17.947 125.696C17.661 125.566 17.3403 125.501 16.985 125.501C16.6297 125.501 16.309 125.566 16.023 125.696C15.7457 125.826 15.5073 126.004 15.308 126.229C15.1087 126.446 14.9527 126.706 14.84 127.009C14.736 127.304 14.684 127.62 14.684 127.958C14.684 128.296 14.736 128.617 14.84 128.92C14.9527 129.215 15.1087 129.475 15.308 129.7C15.5073 129.917 15.7457 130.09 16.023 130.22C16.309 130.341 16.6297 130.402 16.985 130.402C17.3403 130.402 17.661 130.341 17.947 130.22C18.233 130.09 18.4757 129.917 18.675 129.7C18.8743 129.475 19.026 129.215 19.13 128.92C19.2427 128.617 19.299 128.296 19.299 127.958ZM23.4503 124.916C23.4676 125.081 23.4806 125.263 23.4893 125.462C23.4979 125.661 23.5023 125.826 23.5023 125.956H23.5283C23.7016 125.601 23.9833 125.315 24.3733 125.098C24.7633 124.873 25.1749 124.76 25.6083 124.76C26.3796 124.76 26.9559 124.99 27.3373 125.449C27.7273 125.908 27.9223 126.515 27.9223 127.269V131H27.0383V127.633C27.0383 127.312 27.0123 127.022 26.9603 126.762C26.9083 126.502 26.8173 126.281 26.6873 126.099C26.5659 125.908 26.3969 125.761 26.1803 125.657C25.9723 125.553 25.7079 125.501 25.3873 125.501C25.1533 125.501 24.9236 125.549 24.6983 125.644C24.4816 125.739 24.2866 125.887 24.1133 126.086C23.9399 126.277 23.8013 126.524 23.6973 126.827C23.5933 127.122 23.5413 127.473 23.5413 127.88V131H22.6573V126.255C22.6573 126.09 22.6529 125.878 22.6443 125.618C22.6356 125.358 22.6226 125.124 22.6053 124.916H23.4503ZM33.968 126.359C33.838 126.108 33.6386 125.904 33.37 125.748C33.11 125.583 32.811 125.501 32.473 125.501C32.317 125.501 32.161 125.518 32.005 125.553C31.849 125.588 31.7103 125.644 31.589 125.722C31.4676 125.8 31.368 125.9 31.29 126.021C31.2206 126.142 31.186 126.285 31.186 126.45C31.186 126.736 31.303 126.957 31.537 127.113C31.771 127.26 32.1393 127.386 32.642 127.49C33.3613 127.637 33.89 127.854 34.228 128.14C34.5746 128.417 34.748 128.794 34.748 129.271C34.748 129.618 34.6786 129.912 34.54 130.155C34.41 130.389 34.2366 130.584 34.02 130.74C33.8033 130.887 33.5563 130.991 33.279 131.052C33.0103 131.121 32.7373 131.156 32.46 131.156C32.0006 131.156 31.5543 131.061 31.121 130.87C30.6876 130.679 30.3323 130.38 30.055 129.973L30.757 129.453C30.913 129.722 31.1426 129.947 31.446 130.129C31.7493 130.311 32.083 130.402 32.447 130.402C32.6376 130.402 32.8196 130.385 32.993 130.35C33.1663 130.315 33.318 130.255 33.448 130.168C33.578 130.081 33.682 129.973 33.76 129.843C33.838 129.704 33.877 129.535 33.877 129.336C33.877 129.015 33.721 128.777 33.409 128.621C33.1056 128.456 32.6636 128.305 32.083 128.166C31.901 128.123 31.706 128.071 31.498 128.01C31.2986 127.941 31.1123 127.845 30.939 127.724C30.7656 127.594 30.6226 127.434 30.51 127.243C30.3973 127.052 30.341 126.814 30.341 126.528C30.341 126.216 30.4016 125.952 30.523 125.735C30.6443 125.51 30.8046 125.328 31.004 125.189C31.212 125.042 31.446 124.933 31.706 124.864C31.966 124.795 32.2346 124.76 32.512 124.76C32.9366 124.76 33.3483 124.855 33.747 125.046C34.1456 125.237 34.4446 125.505 34.644 125.852L33.968 126.359ZM41.6683 127.49C41.6423 126.918 41.456 126.446 41.1093 126.073C40.7713 125.692 40.286 125.501 39.6533 125.501C39.3587 125.501 39.0857 125.557 38.8343 125.67C38.583 125.774 38.362 125.921 38.1713 126.112C37.9807 126.294 37.829 126.506 37.7163 126.749C37.6037 126.983 37.5387 127.23 37.5213 127.49H41.6683ZM42.5653 127.776C42.5653 127.837 42.5653 127.902 42.5653 127.971C42.5653 128.04 42.561 128.114 42.5523 128.192H37.5083C37.517 128.495 37.5777 128.781 37.6903 129.05C37.803 129.319 37.959 129.553 38.1583 129.752C38.3577 129.951 38.5917 130.112 38.8603 130.233C39.129 130.346 39.4193 130.402 39.7313 130.402C40.1907 130.402 40.585 130.298 40.9143 130.09C41.2523 129.873 41.508 129.626 41.6813 129.349L42.3443 129.869C41.9803 130.328 41.5773 130.658 41.1353 130.857C40.702 131.056 40.234 131.156 39.7313 131.156C39.2807 131.156 38.8603 131.078 38.4703 130.922C38.089 130.757 37.7597 130.532 37.4823 130.246C37.205 129.96 36.984 129.622 36.8193 129.232C36.6633 128.842 36.5853 128.417 36.5853 127.958C36.5853 127.499 36.6633 127.074 36.8193 126.684C36.9753 126.294 37.192 125.956 37.4693 125.67C37.7467 125.384 38.0717 125.163 38.4443 125.007C38.817 124.842 39.22 124.76 39.6533 124.76C40.13 124.76 40.5503 124.842 40.9143 125.007C41.2783 125.163 41.5817 125.38 41.8243 125.657C42.067 125.926 42.249 126.242 42.3703 126.606C42.5003 126.97 42.5653 127.36 42.5653 127.776ZM49.3678 126.307C49.2205 126.073 49.0038 125.882 48.7178 125.735C48.4405 125.579 48.1371 125.501 47.8078 125.501C47.4525 125.501 47.1318 125.566 46.8458 125.696C46.5598 125.817 46.3128 125.991 46.1048 126.216C45.9055 126.433 45.7495 126.693 45.6368 126.996C45.5328 127.291 45.4808 127.611 45.4808 127.958C45.4808 128.305 45.5328 128.625 45.6368 128.92C45.7495 129.215 45.9055 129.475 46.1048 129.7C46.3041 129.917 46.5468 130.09 46.8328 130.22C47.1188 130.341 47.4395 130.402 47.7948 130.402C48.1848 130.402 48.5141 130.328 48.7828 130.181C49.0515 130.034 49.2725 129.843 49.4458 129.609L50.1088 130.103C49.8488 130.424 49.5281 130.679 49.1468 130.87C48.7741 131.061 48.3235 131.156 47.7948 131.156C47.3008 131.156 46.8545 131.078 46.4558 130.922C46.0571 130.757 45.7148 130.532 45.4288 130.246C45.1515 129.96 44.9348 129.622 44.7788 129.232C44.6228 128.842 44.5448 128.417 44.5448 127.958C44.5448 127.499 44.6228 127.074 44.7788 126.684C44.9348 126.294 45.1515 125.956 45.4288 125.67C45.7148 125.384 46.0571 125.163 46.4558 125.007C46.8545 124.842 47.3008 124.76 47.7948 124.76C48.2021 124.76 48.6138 124.851 49.0298 125.033C49.4545 125.206 49.7968 125.466 50.0568 125.813L49.3678 126.307ZM54.7498 125.657H53.0338V129.206C53.0338 129.431 53.0555 129.618 53.0988 129.765C53.1421 129.912 53.2028 130.029 53.2808 130.116C53.3675 130.194 53.4671 130.25 53.5798 130.285C53.6925 130.311 53.8138 130.324 53.9438 130.324C54.0651 130.324 54.1908 130.307 54.3208 130.272C54.4595 130.237 54.5895 130.19 54.7108 130.129L54.7498 130.896C54.5938 130.957 54.4291 131 54.2558 131.026C54.0911 131.061 53.9091 131.078 53.7098 131.078C53.5451 131.078 53.3718 131.056 53.1898 131.013C53.0078 130.97 52.8388 130.887 52.6828 130.766C52.5268 130.645 52.3968 130.48 52.2928 130.272C52.1975 130.064 52.1498 129.791 52.1498 129.453V125.657H50.8888V124.916H52.1498V123.2H53.0338V124.916H54.7498V125.657ZM61.2938 127.49C61.2678 126.918 61.0814 126.446 60.7348 126.073C60.3968 125.692 59.9114 125.501 59.2788 125.501C58.9841 125.501 58.7111 125.557 58.4598 125.67C58.2084 125.774 57.9874 125.921 57.7968 126.112C57.6061 126.294 57.4544 126.506 57.3418 126.749C57.2291 126.983 57.1641 127.23 57.1468 127.49H61.2938ZM62.1908 127.776C62.1908 127.837 62.1908 127.902 62.1908 127.971C62.1908 128.04 62.1864 128.114 62.1778 128.192H57.1338C57.1424 128.495 57.2031 128.781 57.3158 129.05C57.4284 129.319 57.5844 129.553 57.7838 129.752C57.9831 129.951 58.2171 130.112 58.4858 130.233C58.7544 130.346 59.0448 130.402 59.3568 130.402C59.8161 130.402 60.2104 130.298 60.5398 130.09C60.8778 129.873 61.1334 129.626 61.3068 129.349L61.9698 129.869C61.6058 130.328 61.2028 130.658 60.7608 130.857C60.3274 131.056 59.8594 131.156 59.3568 131.156C58.9061 131.156 58.4858 131.078 58.0958 130.922C57.7144 130.757 57.3851 130.532 57.1078 130.246C56.8304 129.96 56.6094 129.622 56.4448 129.232C56.2888 128.842 56.2108 128.417 56.2108 127.958C56.2108 127.499 56.2888 127.074 56.4448 126.684C56.6008 126.294 56.8174 125.956 57.0948 125.67C57.3721 125.384 57.6971 125.163 58.0698 125.007C58.4424 124.842 58.8454 124.76 59.2788 124.76C59.7554 124.76 60.1758 124.842 60.5398 125.007C60.9038 125.163 61.2071 125.38 61.4498 125.657C61.6924 125.926 61.8744 126.242 61.9958 126.606C62.1258 126.97 62.1908 127.36 62.1908 127.776ZM67.3552 125.657H65.6392V129.206C65.6392 129.431 65.6609 129.618 65.7042 129.765C65.7476 129.912 65.8082 130.029 65.8862 130.116C65.9729 130.194 66.0726 130.25 66.1852 130.285C66.2979 130.311 66.4192 130.324 66.5492 130.324C66.6706 130.324 66.7962 130.307 66.9262 130.272C67.0649 130.237 67.1949 130.19 67.3162 130.129L67.3552 130.896C67.1992 130.957 67.0346 131 66.8612 131.026C66.6966 131.061 66.5146 131.078 66.3152 131.078C66.1506 131.078 65.9772 131.056 65.7952 131.013C65.6132 130.97 65.4442 130.887 65.2882 130.766C65.1322 130.645 65.0022 130.48 64.8982 130.272C64.8029 130.064 64.7552 129.791 64.7552 129.453V125.657H63.4942V124.916H64.7552V123.2H65.6392V124.916H67.3552V125.657ZM73.6782 131C73.6609 130.835 73.6479 130.653 73.6392 130.454C73.6305 130.255 73.6262 130.09 73.6262 129.96H73.6002C73.4269 130.315 73.1452 130.606 72.7552 130.831C72.3652 131.048 71.9535 131.156 71.5202 131.156C70.7489 131.156 70.1682 130.926 69.7782 130.467C69.3969 130.008 69.2062 129.401 69.2062 128.647V124.916H70.0902V128.283C70.0902 128.604 70.1162 128.894 70.1682 129.154C70.2202 129.414 70.3069 129.639 70.4282 129.83C70.5582 130.012 70.7272 130.155 70.9352 130.259C71.1519 130.363 71.4205 130.415 71.7412 130.415C71.9752 130.415 72.2005 130.367 72.4172 130.272C72.6425 130.177 72.8419 130.034 73.0152 129.843C73.1885 129.644 73.3272 129.397 73.4312 129.102C73.5352 128.799 73.5872 128.443 73.5872 128.036V124.916H74.4712V129.661C74.4712 129.826 74.4755 130.038 74.4842 130.298C74.4929 130.558 74.5059 130.792 74.5232 131H73.6782ZM77.3319 126.255C77.3319 126.09 77.3276 125.878 77.3189 125.618C77.3102 125.358 77.2972 125.124 77.2799 124.916H78.1249C78.1422 125.081 78.1552 125.263 78.1639 125.462C78.1726 125.661 78.1769 125.826 78.1769 125.956H78.2029C78.3762 125.601 78.6362 125.315 78.9829 125.098C79.3296 124.873 79.7196 124.76 80.1529 124.76C80.2656 124.76 80.3652 124.764 80.4519 124.773C80.5472 124.782 80.6426 124.799 80.7379 124.825L80.6209 125.657C80.5689 125.64 80.4822 125.622 80.3609 125.605C80.2396 125.588 80.1182 125.579 79.9969 125.579C79.7629 125.579 79.5376 125.622 79.3209 125.709C79.1042 125.796 78.9136 125.934 78.7489 126.125C78.5929 126.307 78.4629 126.545 78.3589 126.84C78.2636 127.126 78.2159 127.473 78.2159 127.88V131H77.3319V126.255ZM90.1415 127.074C90.1415 126.545 90.0028 126.151 89.7255 125.891C89.4481 125.631 89.0451 125.501 88.5165 125.501C88.1525 125.501 87.8145 125.566 87.5025 125.696C87.1905 125.826 86.9261 125.999 86.7095 126.216L86.2155 125.631C86.4668 125.38 86.7961 125.172 87.2035 125.007C87.6195 124.842 88.0875 124.76 88.6075 124.76C88.9368 124.76 89.2445 124.808 89.5305 124.903C89.8165 124.99 90.0678 125.124 90.2845 125.306C90.5011 125.488 90.6701 125.718 90.7915 125.995C90.9128 126.272 90.9735 126.597 90.9735 126.97V129.635C90.9735 129.869 90.9821 130.112 90.9995 130.363C91.0168 130.614 91.0428 130.827 91.0775 131H90.2845C90.2585 130.853 90.2368 130.692 90.2195 130.519C90.2021 130.346 90.1935 130.177 90.1935 130.012H90.1675C89.8901 130.419 89.5738 130.714 89.2185 130.896C88.8718 131.069 88.4515 131.156 87.9575 131.156C87.7235 131.156 87.4808 131.121 87.2295 131.052C86.9868 130.991 86.7615 130.887 86.5535 130.74C86.3541 130.593 86.1851 130.402 86.0465 130.168C85.9165 129.934 85.8515 129.648 85.8515 129.31C85.8515 128.842 85.9685 128.474 86.2025 128.205C86.4451 127.928 86.7658 127.724 87.1645 127.594C87.5631 127.455 88.0181 127.369 88.5295 127.334C89.0495 127.291 89.5868 127.269 90.1415 127.269V127.074ZM89.8815 127.958C89.5175 127.958 89.1491 127.975 88.7765 128.01C88.4125 128.036 88.0788 128.097 87.7755 128.192C87.4808 128.279 87.2381 128.409 87.0475 128.582C86.8568 128.755 86.7615 128.985 86.7615 129.271C86.7615 129.488 86.8005 129.67 86.8785 129.817C86.9651 129.964 87.0778 130.086 87.2165 130.181C87.3551 130.268 87.5068 130.333 87.6715 130.376C87.8448 130.411 88.0181 130.428 88.1915 130.428C88.5035 130.428 88.7808 130.376 89.0235 130.272C89.2661 130.159 89.4698 130.012 89.6345 129.83C89.7991 129.639 89.9248 129.423 90.0115 129.18C90.0981 128.937 90.1415 128.682 90.1415 128.413V127.958H89.8815ZM98.7758 129.973C98.5158 130.363 98.1778 130.658 97.7618 130.857C97.3458 131.056 96.9168 131.156 96.4748 131.156C95.9982 131.156 95.5648 131.074 95.1748 130.909C94.7935 130.744 94.4642 130.519 94.1868 130.233C93.9182 129.947 93.7058 129.609 93.5498 129.219C93.4025 128.829 93.3288 128.409 93.3288 127.958C93.3288 127.507 93.4025 127.087 93.5498 126.697C93.7058 126.307 93.9182 125.969 94.1868 125.683C94.4642 125.397 94.7935 125.172 95.1748 125.007C95.5648 124.842 95.9982 124.76 96.4748 124.76C96.9168 124.76 97.3458 124.864 97.7618 125.072C98.1778 125.271 98.5158 125.57 98.7758 125.969H98.8018V121.172H99.6858V131H98.8018V129.973H98.7758ZM94.2648 127.958C94.2648 128.296 94.3168 128.617 94.4208 128.92C94.5248 129.215 94.6722 129.475 94.8628 129.7C95.0622 129.917 95.3048 130.09 95.5908 130.22C95.8768 130.341 96.2018 130.402 96.5658 130.402C96.9038 130.402 97.2158 130.341 97.5018 130.22C97.7878 130.09 98.0348 129.917 98.2428 129.7C98.4508 129.483 98.6112 129.228 98.7238 128.933C98.8452 128.63 98.9058 128.305 98.9058 127.958C98.9058 127.611 98.8452 127.291 98.7238 126.996C98.6112 126.693 98.4508 126.433 98.2428 126.216C98.0348 125.991 97.7878 125.817 97.5018 125.696C97.2158 125.566 96.9038 125.501 96.5658 125.501C96.2018 125.501 95.8768 125.566 95.5908 125.696C95.3048 125.826 95.0622 126.004 94.8628 126.229C94.6722 126.446 94.5248 126.706 94.4208 127.009C94.3168 127.304 94.2648 127.62 94.2648 127.958ZM103.465 131H102.581V124.916H103.465V131ZM103.647 122.576C103.647 122.758 103.582 122.91 103.452 123.031C103.322 123.144 103.179 123.2 103.023 123.2C102.867 123.2 102.724 123.144 102.594 123.031C102.464 122.91 102.399 122.758 102.399 122.576C102.399 122.394 102.464 122.247 102.594 122.134C102.724 122.013 102.867 121.952 103.023 121.952C103.179 121.952 103.322 122.013 103.452 122.134C103.582 122.247 103.647 122.394 103.647 122.576ZM107.222 134.12H106.338V124.916H107.222V125.969H107.261C107.513 125.57 107.846 125.271 108.262 125.072C108.687 124.864 109.116 124.76 109.549 124.76C110.026 124.76 110.455 124.842 110.836 125.007C111.226 125.172 111.556 125.397 111.824 125.683C112.102 125.969 112.314 126.307 112.461 126.697C112.617 127.087 112.695 127.507 112.695 127.958C112.695 128.409 112.617 128.829 112.461 129.219C112.314 129.609 112.102 129.947 111.824 130.233C111.556 130.519 111.226 130.744 110.836 130.909C110.455 131.074 110.026 131.156 109.549 131.156C109.116 131.156 108.687 131.056 108.262 130.857C107.846 130.649 107.513 130.354 107.261 129.973H107.222V134.12ZM111.759 127.958C111.759 127.62 111.707 127.304 111.603 127.009C111.499 126.706 111.348 126.446 111.148 126.229C110.958 126.004 110.719 125.826 110.433 125.696C110.147 125.566 109.822 125.501 109.458 125.501C109.12 125.501 108.808 125.566 108.522 125.696C108.236 125.817 107.989 125.991 107.781 126.216C107.573 126.433 107.409 126.693 107.287 126.996C107.175 127.291 107.118 127.611 107.118 127.958C107.118 128.305 107.175 128.63 107.287 128.933C107.409 129.228 107.573 129.483 107.781 129.7C107.989 129.917 108.236 130.09 108.522 130.22C108.808 130.341 109.12 130.402 109.458 130.402C109.822 130.402 110.147 130.341 110.433 130.22C110.719 130.09 110.958 129.917 111.148 129.7C111.348 129.475 111.499 129.215 111.603 128.92C111.707 128.617 111.759 128.296 111.759 127.958ZM116.007 131H115.123V124.916H116.007V131ZM116.189 122.576C116.189 122.758 116.124 122.91 115.994 123.031C115.864 123.144 115.721 123.2 115.565 123.2C115.409 123.2 115.266 123.144 115.136 123.031C115.006 122.91 114.941 122.758 114.941 122.576C114.941 122.394 115.006 122.247 115.136 122.134C115.266 122.013 115.409 121.952 115.565 121.952C115.721 121.952 115.864 122.013 115.994 122.134C116.124 122.247 116.189 122.394 116.189 122.576ZM122.117 126.359C121.987 126.108 121.788 125.904 121.519 125.748C121.259 125.583 120.96 125.501 120.622 125.501C120.466 125.501 120.31 125.518 120.154 125.553C119.998 125.588 119.859 125.644 119.738 125.722C119.617 125.8 119.517 125.9 119.439 126.021C119.37 126.142 119.335 126.285 119.335 126.45C119.335 126.736 119.452 126.957 119.686 127.113C119.92 127.26 120.288 127.386 120.791 127.49C121.51 127.637 122.039 127.854 122.377 128.14C122.724 128.417 122.897 128.794 122.897 129.271C122.897 129.618 122.828 129.912 122.689 130.155C122.559 130.389 122.386 130.584 122.169 130.74C121.952 130.887 121.705 130.991 121.428 131.052C121.159 131.121 120.886 131.156 120.609 131.156C120.15 131.156 119.703 131.061 119.27 130.87C118.837 130.679 118.481 130.38 118.204 129.973L118.906 129.453C119.062 129.722 119.292 129.947 119.595 130.129C119.898 130.311 120.232 130.402 120.596 130.402C120.787 130.402 120.969 130.385 121.142 130.35C121.315 130.315 121.467 130.255 121.597 130.168C121.727 130.081 121.831 129.973 121.909 129.843C121.987 129.704 122.026 129.535 122.026 129.336C122.026 129.015 121.87 128.777 121.558 128.621C121.255 128.456 120.813 128.305 120.232 128.166C120.05 128.123 119.855 128.071 119.647 128.01C119.448 127.941 119.261 127.845 119.088 127.724C118.915 127.594 118.772 127.434 118.659 127.243C118.546 127.052 118.49 126.814 118.49 126.528C118.49 126.216 118.551 125.952 118.672 125.735C118.793 125.51 118.954 125.328 119.153 125.189C119.361 125.042 119.595 124.933 119.855 124.864C120.115 124.795 120.384 124.76 120.661 124.76C121.086 124.76 121.497 124.855 121.896 125.046C122.295 125.237 122.594 125.505 122.793 125.852L122.117 126.359ZM129.557 126.307C129.41 126.073 129.193 125.882 128.907 125.735C128.63 125.579 128.327 125.501 127.997 125.501C127.642 125.501 127.321 125.566 127.035 125.696C126.749 125.817 126.502 125.991 126.294 126.216C126.095 126.433 125.939 126.693 125.826 126.996C125.722 127.291 125.67 127.611 125.67 127.958C125.67 128.305 125.722 128.625 125.826 128.92C125.939 129.215 126.095 129.475 126.294 129.7C126.494 129.917 126.736 130.09 127.022 130.22C127.308 130.341 127.629 130.402 127.984 130.402C128.374 130.402 128.704 130.328 128.972 130.181C129.241 130.034 129.462 129.843 129.635 129.609L130.298 130.103C130.038 130.424 129.718 130.679 129.336 130.87C128.964 131.061 128.513 131.156 127.984 131.156C127.49 131.156 127.044 131.078 126.645 130.922C126.247 130.757 125.904 130.532 125.618 130.246C125.341 129.96 125.124 129.622 124.968 129.232C124.812 128.842 124.734 128.417 124.734 127.958C124.734 127.499 124.812 127.074 124.968 126.684C125.124 126.294 125.341 125.956 125.618 125.67C125.904 125.384 126.247 125.163 126.645 125.007C127.044 124.842 127.49 124.76 127.984 124.76C128.392 124.76 128.803 124.851 129.219 125.033C129.644 125.206 129.986 125.466 130.246 125.813L129.557 126.307ZM133.093 131H132.209V124.916H133.093V131ZM133.275 122.576C133.275 122.758 133.21 122.91 133.08 123.031C132.95 123.144 132.807 123.2 132.651 123.2C132.495 123.2 132.352 123.144 132.222 123.031C132.092 122.91 132.027 122.758 132.027 122.576C132.027 122.394 132.092 122.247 132.222 122.134C132.352 122.013 132.495 121.952 132.651 121.952C132.807 121.952 132.95 122.013 133.08 122.134C133.21 122.247 133.275 122.394 133.275 122.576ZM136.759 124.916C136.777 125.081 136.79 125.263 136.798 125.462C136.807 125.661 136.811 125.826 136.811 125.956H136.837C137.011 125.601 137.292 125.315 137.682 125.098C138.072 124.873 138.484 124.76 138.917 124.76C139.689 124.76 140.265 124.99 140.646 125.449C141.036 125.908 141.231 126.515 141.231 127.269V131H140.347V127.633C140.347 127.312 140.321 127.022 140.269 126.762C140.217 126.502 140.126 126.281 139.996 126.099C139.875 125.908 139.706 125.761 139.489 125.657C139.281 125.553 139.017 125.501 138.696 125.501C138.462 125.501 138.233 125.549 138.007 125.644C137.791 125.739 137.596 125.887 137.422 126.086C137.249 126.277 137.11 126.524 137.006 126.827C136.902 127.122 136.85 127.473 136.85 127.88V131H135.966V126.255C135.966 126.09 135.962 125.878 135.953 125.618C135.945 125.358 135.932 125.124 135.914 124.916H136.759ZM144.365 132.222C144.608 132.534 144.937 132.798 145.353 133.015C145.778 133.232 146.224 133.34 146.692 133.34C147.126 133.34 147.494 133.275 147.797 133.145C148.101 133.024 148.343 132.855 148.525 132.638C148.716 132.421 148.855 132.166 148.941 131.871C149.028 131.585 149.071 131.277 149.071 130.948V129.804H149.045C148.811 130.185 148.478 130.48 148.044 130.688C147.62 130.896 147.186 131 146.744 131C146.268 131 145.834 130.922 145.444 130.766C145.063 130.61 144.734 130.398 144.456 130.129C144.188 129.852 143.975 129.522 143.819 129.141C143.672 128.76 143.598 128.348 143.598 127.906C143.598 127.473 143.672 127.065 143.819 126.684C143.975 126.303 144.188 125.969 144.456 125.683C144.734 125.397 145.063 125.172 145.444 125.007C145.834 124.842 146.268 124.76 146.744 124.76C147.186 124.76 147.62 124.864 148.044 125.072C148.469 125.28 148.803 125.579 149.045 125.969H149.071V124.916H149.955V130.948C149.955 131.277 149.908 131.628 149.812 132.001C149.726 132.374 149.557 132.716 149.305 133.028C149.063 133.34 148.729 133.6 148.304 133.808C147.88 134.016 147.329 134.12 146.653 134.12C146.09 134.12 145.553 134.012 145.041 133.795C144.53 133.578 144.092 133.279 143.728 132.898L144.365 132.222ZM144.534 127.88C144.534 128.201 144.586 128.504 144.69 128.79C144.794 129.076 144.942 129.327 145.132 129.544C145.332 129.761 145.574 129.934 145.86 130.064C146.146 130.185 146.471 130.246 146.835 130.246C147.173 130.246 147.485 130.19 147.771 130.077C148.057 129.964 148.304 129.804 148.512 129.596C148.72 129.388 148.881 129.141 148.993 128.855C149.115 128.56 149.175 128.235 149.175 127.88C149.175 127.559 149.115 127.256 148.993 126.97C148.881 126.684 148.72 126.433 148.512 126.216C148.304 125.999 148.057 125.826 147.771 125.696C147.485 125.566 147.173 125.501 146.835 125.501C146.471 125.501 146.146 125.566 145.86 125.696C145.574 125.826 145.332 125.999 145.132 126.216C144.942 126.433 144.794 126.684 144.69 126.97C144.586 127.256 144.534 127.559 144.534 127.88ZM161.185 127.49C161.159 126.918 160.973 126.446 160.626 126.073C160.288 125.692 159.803 125.501 159.17 125.501C158.875 125.501 158.602 125.557 158.351 125.67C158.1 125.774 157.879 125.921 157.688 126.112C157.497 126.294 157.346 126.506 157.233 126.749C157.12 126.983 157.055 127.23 157.038 127.49H161.185ZM162.082 127.776C162.082 127.837 162.082 127.902 162.082 127.971C162.082 128.04 162.078 128.114 162.069 128.192H157.025C157.034 128.495 157.094 128.781 157.207 129.05C157.32 129.319 157.476 129.553 157.675 129.752C157.874 129.951 158.108 130.112 158.377 130.233C158.646 130.346 158.936 130.402 159.248 130.402C159.707 130.402 160.102 130.298 160.431 130.09C160.769 129.873 161.025 129.626 161.198 129.349L161.861 129.869C161.497 130.328 161.094 130.658 160.652 130.857C160.219 131.056 159.751 131.156 159.248 131.156C158.797 131.156 158.377 131.078 157.987 130.922C157.606 130.757 157.276 130.532 156.999 130.246C156.722 129.96 156.501 129.622 156.336 129.232C156.18 128.842 156.102 128.417 156.102 127.958C156.102 127.499 156.18 127.074 156.336 126.684C156.492 126.294 156.709 125.956 156.986 125.67C157.263 125.384 157.588 125.163 157.961 125.007C158.334 124.842 158.737 124.76 159.17 124.76C159.647 124.76 160.067 124.842 160.431 125.007C160.795 125.163 161.098 125.38 161.341 125.657C161.584 125.926 161.766 126.242 161.887 126.606C162.017 126.97 162.082 127.36 162.082 127.776ZM165.414 131H164.53V121.172H165.414V131ZM169.196 131H168.312V124.916H169.196V131ZM169.378 122.576C169.378 122.758 169.313 122.91 169.183 123.031C169.053 123.144 168.91 123.2 168.754 123.2C168.598 123.2 168.455 123.144 168.325 123.031C168.195 122.91 168.13 122.758 168.13 122.576C168.13 122.394 168.195 122.247 168.325 122.134C168.455 122.013 168.598 121.952 168.754 121.952C168.91 121.952 169.053 122.013 169.183 122.134C169.313 122.247 169.378 122.394 169.378 122.576ZM174.812 125.657H173.096V129.206C173.096 129.431 173.118 129.618 173.161 129.765C173.204 129.912 173.265 130.029 173.343 130.116C173.43 130.194 173.529 130.25 173.642 130.285C173.755 130.311 173.876 130.324 174.006 130.324C174.127 130.324 174.253 130.307 174.383 130.272C174.522 130.237 174.652 130.19 174.773 130.129L174.812 130.896C174.656 130.957 174.491 131 174.318 131.026C174.153 131.061 173.971 131.078 173.772 131.078C173.607 131.078 173.434 131.056 173.252 131.013C173.07 130.97 172.901 130.887 172.745 130.766C172.589 130.645 172.459 130.48 172.355 130.272C172.26 130.064 172.212 129.791 172.212 129.453V125.657H170.951V124.916H172.212V123.2H173.096V124.916H174.812V125.657ZM177.937 130.376C177.937 130.558 177.872 130.723 177.742 130.87C177.612 131.009 177.443 131.078 177.235 131.078C177.027 131.078 176.858 131.009 176.728 130.87C176.598 130.723 176.533 130.558 176.533 130.376C176.533 130.194 176.598 130.034 176.728 129.895C176.858 129.748 177.027 129.674 177.235 129.674C177.443 129.674 177.612 129.748 177.742 129.895C177.872 130.034 177.937 130.194 177.937 130.376ZM188.499 123.278C188.3 123.001 188.044 122.78 187.732 122.615C187.42 122.442 187.043 122.355 186.601 122.355C186.376 122.355 186.146 122.39 185.912 122.459C185.678 122.528 185.466 122.637 185.275 122.784C185.085 122.923 184.929 123.1 184.807 123.317C184.695 123.534 184.638 123.789 184.638 124.084C184.638 124.379 184.695 124.621 184.807 124.812C184.92 125.003 185.067 125.167 185.249 125.306C185.44 125.436 185.652 125.544 185.886 125.631C186.129 125.718 186.38 125.804 186.64 125.891C186.961 125.995 187.282 126.108 187.602 126.229C187.932 126.35 188.226 126.511 188.486 126.71C188.746 126.901 188.959 127.148 189.123 127.451C189.288 127.746 189.37 128.123 189.37 128.582C189.37 129.041 189.279 129.44 189.097 129.778C188.924 130.107 188.694 130.38 188.408 130.597C188.131 130.814 187.81 130.974 187.446 131.078C187.091 131.182 186.731 131.234 186.367 131.234C186.09 131.234 185.813 131.204 185.535 131.143C185.258 131.091 184.994 131.009 184.742 130.896C184.491 130.783 184.257 130.64 184.04 130.467C183.824 130.294 183.633 130.094 183.468 129.869L184.274 129.271C184.474 129.6 184.751 129.878 185.106 130.103C185.47 130.32 185.895 130.428 186.38 130.428C186.614 130.428 186.853 130.393 187.095 130.324C187.338 130.246 187.555 130.133 187.745 129.986C187.945 129.83 188.105 129.644 188.226 129.427C188.356 129.202 188.421 128.942 188.421 128.647C188.421 128.326 188.356 128.062 188.226 127.854C188.105 127.637 187.94 127.46 187.732 127.321C187.524 127.174 187.286 127.052 187.017 126.957C186.749 126.862 186.467 126.766 186.172 126.671C185.869 126.576 185.57 126.467 185.275 126.346C184.981 126.225 184.716 126.069 184.482 125.878C184.248 125.679 184.058 125.436 183.91 125.15C183.772 124.864 183.702 124.513 183.702 124.097C183.702 123.655 183.789 123.274 183.962 122.953C184.144 122.632 184.378 122.368 184.664 122.16C184.95 121.952 185.267 121.8 185.613 121.705C185.96 121.61 186.302 121.562 186.64 121.562C187.264 121.562 187.797 121.675 188.239 121.9C188.681 122.117 189.015 122.377 189.24 122.68L188.499 123.278ZM192.743 131H191.859V124.916H192.743V131ZM192.925 122.576C192.925 122.758 192.86 122.91 192.73 123.031C192.6 123.144 192.457 123.2 192.301 123.2C192.145 123.2 192.002 123.144 191.872 123.031C191.742 122.91 191.677 122.758 191.677 122.576C191.677 122.394 191.742 122.247 191.872 122.134C192.002 122.013 192.145 121.952 192.301 121.952C192.457 121.952 192.6 122.013 192.73 122.134C192.86 122.247 192.925 122.394 192.925 122.576ZM198.359 125.657H196.643V129.206C196.643 129.431 196.665 129.618 196.708 129.765C196.752 129.912 196.812 130.029 196.89 130.116C196.977 130.194 197.077 130.25 197.189 130.285C197.302 130.311 197.423 130.324 197.553 130.324C197.675 130.324 197.8 130.307 197.93 130.272C198.069 130.237 198.199 130.19 198.32 130.129L198.359 130.896C198.203 130.957 198.039 131 197.865 131.026C197.701 131.061 197.519 131.078 197.319 131.078C197.155 131.078 196.981 131.056 196.799 131.013C196.617 130.97 196.448 130.887 196.292 130.766C196.136 130.645 196.006 130.48 195.902 130.272C195.807 130.064 195.759 129.791 195.759 129.453V125.657H194.498V124.916H195.759V123.2H196.643V124.916H198.359V125.657ZM12.162 146.973C11.9107 147.354 11.5727 147.649 11.148 147.857C10.732 148.056 10.3073 148.156 9.874 148.156C9.39733 148.156 8.964 148.074 8.574 147.909C8.19267 147.744 7.86333 147.519 7.586 147.233C7.31733 146.947 7.105 146.609 6.949 146.219C6.80167 145.829 6.728 145.409 6.728 144.958C6.728 144.507 6.80167 144.087 6.949 143.697C7.105 143.307 7.31733 142.969 7.586 142.683C7.86333 142.397 8.19267 142.172 8.574 142.007C8.964 141.842 9.39733 141.76 9.874 141.76C10.3073 141.76 10.732 141.864 11.148 142.072C11.5727 142.271 11.9107 142.57 12.162 142.969H12.201V141.916H13.085V151.12H12.201V146.973H12.162ZM7.664 144.958C7.664 145.296 7.716 145.617 7.82 145.92C7.924 146.215 8.07133 146.475 8.262 146.7C8.46133 146.917 8.704 147.09 8.99 147.22C9.276 147.341 9.601 147.402 9.965 147.402C10.303 147.402 10.615 147.341 10.901 147.22C11.187 147.09 11.434 146.917 11.642 146.7C11.85 146.483 12.0103 146.228 12.123 145.933C12.2443 145.63 12.305 145.305 12.305 144.958C12.305 144.611 12.2443 144.291 12.123 143.996C12.0103 143.693 11.85 143.433 11.642 143.216C11.434 142.991 11.187 142.817 10.901 142.696C10.615 142.566 10.303 142.501 9.965 142.501C9.601 142.501 9.276 142.566 8.99 142.696C8.704 142.826 8.46133 143.004 8.262 143.229C8.07133 143.446 7.924 143.706 7.82 144.009C7.716 144.304 7.664 144.62 7.664 144.958ZM20.362 148C20.3446 147.835 20.3316 147.653 20.323 147.454C20.3143 147.255 20.31 147.09 20.31 146.96H20.284C20.1106 147.315 19.829 147.606 19.439 147.831C19.049 148.048 18.6373 148.156 18.204 148.156C17.4326 148.156 16.852 147.926 16.462 147.467C16.0806 147.008 15.89 146.401 15.89 145.647V141.916H16.774V145.283C16.774 145.604 16.8 145.894 16.852 146.154C16.904 146.414 16.9906 146.639 17.112 146.83C17.242 147.012 17.411 147.155 17.619 147.259C17.8356 147.363 18.1043 147.415 18.425 147.415C18.659 147.415 18.8843 147.367 19.101 147.272C19.3263 147.177 19.5256 147.034 19.699 146.843C19.8723 146.644 20.011 146.397 20.115 146.102C20.219 145.799 20.271 145.443 20.271 145.036V141.916H21.155V146.661C21.155 146.826 21.1593 147.038 21.168 147.298C21.1766 147.558 21.1896 147.792 21.207 148H20.362ZM24.9127 148H24.0287V141.916H24.9127V148ZM25.0947 139.576C25.0947 139.758 25.0297 139.91 24.8997 140.031C24.7697 140.144 24.6267 140.2 24.4707 140.2C24.3147 140.2 24.1717 140.144 24.0417 140.031C23.9117 139.91 23.8467 139.758 23.8467 139.576C23.8467 139.394 23.9117 139.247 24.0417 139.134C24.1717 139.013 24.3147 138.952 24.4707 138.952C24.6267 138.952 24.7697 139.013 24.8997 139.134C25.0297 139.247 25.0947 139.394 25.0947 139.576ZM31.0227 143.359C30.8927 143.108 30.6933 142.904 30.4247 142.748C30.1647 142.583 29.8657 142.501 29.5277 142.501C29.3717 142.501 29.2157 142.518 29.0597 142.553C28.9037 142.588 28.765 142.644 28.6437 142.722C28.5223 142.8 28.4227 142.9 28.3447 143.021C28.2753 143.142 28.2407 143.285 28.2407 143.45C28.2407 143.736 28.3577 143.957 28.5917 144.113C28.8257 144.26 29.194 144.386 29.6967 144.49C30.416 144.637 30.9447 144.854 31.2827 145.14C31.6293 145.417 31.8027 145.794 31.8027 146.271C31.8027 146.618 31.7333 146.912 31.5947 147.155C31.4647 147.389 31.2913 147.584 31.0747 147.74C30.858 147.887 30.611 147.991 30.3337 148.052C30.065 148.121 29.792 148.156 29.5147 148.156C29.0553 148.156 28.609 148.061 28.1757 147.87C27.7423 147.679 27.387 147.38 27.1097 146.973L27.8117 146.453C27.9677 146.722 28.1973 146.947 28.5007 147.129C28.804 147.311 29.1377 147.402 29.5017 147.402C29.6923 147.402 29.8743 147.385 30.0477 147.35C30.221 147.315 30.3727 147.255 30.5027 147.168C30.6327 147.081 30.7367 146.973 30.8147 146.843C30.8927 146.704 30.9317 146.535 30.9317 146.336C30.9317 146.015 30.7757 145.777 30.4637 145.621C30.1603 145.456 29.7183 145.305 29.1377 145.166C28.9557 145.123 28.7607 145.071 28.5527 145.01C28.3533 144.941 28.167 144.845 27.9937 144.724C27.8203 144.594 27.6773 144.434 27.5647 144.243C27.452 144.052 27.3957 143.814 27.3957 143.528C27.3957 143.216 27.4563 142.952 27.5777 142.735C27.699 142.51 27.8593 142.328 28.0587 142.189C28.2667 142.042 28.5007 141.933 28.7607 141.864C29.0207 141.795 29.2893 141.76 29.5667 141.76C29.9913 141.76 30.403 141.855 30.8017 142.046C31.2003 142.237 31.4993 142.505 31.6987 142.852L31.0227 143.359ZM40.348 148H39.373L36.89 141.916H37.878L39.854 147.064H39.88L41.869 141.916H42.818L40.348 148ZM45.6167 148H44.7327V141.916H45.6167V148ZM45.7987 139.576C45.7987 139.758 45.7337 139.91 45.6037 140.031C45.4737 140.144 45.3307 140.2 45.1747 140.2C45.0187 140.2 44.8757 140.144 44.7457 140.031C44.6157 139.91 44.5507 139.758 44.5507 139.576C44.5507 139.394 44.6157 139.247 44.7457 139.134C44.8757 139.013 45.0187 138.952 45.1747 138.952C45.3307 138.952 45.4737 139.013 45.6037 139.134C45.7337 139.247 45.7987 139.394 45.7987 139.576ZM51.2327 142.657H49.5167V146.206C49.5167 146.431 49.5384 146.618 49.5817 146.765C49.625 146.912 49.6857 147.029 49.7637 147.116C49.8504 147.194 49.95 147.25 50.0627 147.285C50.1754 147.311 50.2967 147.324 50.4267 147.324C50.548 147.324 50.6737 147.307 50.8037 147.272C50.9424 147.237 51.0724 147.19 51.1937 147.129L51.2327 147.896C51.0767 147.957 50.912 148 50.7387 148.026C50.574 148.061 50.392 148.078 50.1927 148.078C50.028 148.078 49.8547 148.056 49.6727 148.013C49.4907 147.97 49.3217 147.887 49.1657 147.766C49.0097 147.645 48.8797 147.48 48.7757 147.272C48.6804 147.064 48.6327 146.791 48.6327 146.453V142.657H47.3717V141.916H48.6327V140.2H49.5167V141.916H51.2327V142.657ZM56.9707 144.074C56.9707 143.545 56.832 143.151 56.5547 142.891C56.2773 142.631 55.8743 142.501 55.3457 142.501C54.9817 142.501 54.6437 142.566 54.3317 142.696C54.0197 142.826 53.7553 142.999 53.5387 143.216L53.0447 142.631C53.296 142.38 53.6253 142.172 54.0327 142.007C54.4487 141.842 54.9167 141.76 55.4367 141.76C55.766 141.76 56.0737 141.808 56.3597 141.903C56.6457 141.99 56.897 142.124 57.1137 142.306C57.3303 142.488 57.4993 142.718 57.6207 142.995C57.742 143.272 57.8027 143.597 57.8027 143.97V146.635C57.8027 146.869 57.8113 147.112 57.8287 147.363C57.846 147.614 57.872 147.827 57.9067 148H57.1137C57.0877 147.853 57.066 147.692 57.0487 147.519C57.0313 147.346 57.0227 147.177 57.0227 147.012H56.9967C56.7193 147.419 56.403 147.714 56.0477 147.896C55.701 148.069 55.2807 148.156 54.7867 148.156C54.5527 148.156 54.31 148.121 54.0587 148.052C53.816 147.991 53.5907 147.887 53.3827 147.74C53.1833 147.593 53.0143 147.402 52.8757 147.168C52.7457 146.934 52.6807 146.648 52.6807 146.31C52.6807 145.842 52.7977 145.474 53.0317 145.205C53.2743 144.928 53.595 144.724 53.9937 144.594C54.3923 144.455 54.8473 144.369 55.3587 144.334C55.8787 144.291 56.416 144.269 56.9707 144.269V144.074ZM56.7107 144.958C56.3467 144.958 55.9783 144.975 55.6057 145.01C55.2417 145.036 54.908 145.097 54.6047 145.192C54.31 145.279 54.0673 145.409 53.8767 145.582C53.686 145.755 53.5907 145.985 53.5907 146.271C53.5907 146.488 53.6297 146.67 53.7077 146.817C53.7943 146.964 53.907 147.086 54.0457 147.181C54.1843 147.268 54.336 147.333 54.5007 147.376C54.674 147.411 54.8473 147.428 55.0207 147.428C55.3327 147.428 55.61 147.376 55.8527 147.272C56.0953 147.159 56.299 147.012 56.4637 146.83C56.6283 146.639 56.754 146.423 56.8407 146.18C56.9273 145.937 56.9707 145.682 56.9707 145.413V144.958H56.7107ZM65.241 144.49C65.215 143.918 65.0287 143.446 64.682 143.073C64.344 142.692 63.8587 142.501 63.226 142.501C62.9313 142.501 62.6583 142.557 62.407 142.67C62.1557 142.774 61.9347 142.921 61.744 143.112C61.5533 143.294 61.4017 143.506 61.289 143.749C61.1763 143.983 61.1113 144.23 61.094 144.49H65.241ZM66.138 144.776C66.138 144.837 66.138 144.902 66.138 144.971C66.138 145.04 66.1337 145.114 66.125 145.192H61.081C61.0897 145.495 61.1503 145.781 61.263 146.05C61.3757 146.319 61.5317 146.553 61.731 146.752C61.9303 146.951 62.1643 147.112 62.433 147.233C62.7017 147.346 62.992 147.402 63.304 147.402C63.7633 147.402 64.1577 147.298 64.487 147.09C64.825 146.873 65.0807 146.626 65.254 146.349L65.917 146.869C65.553 147.328 65.15 147.658 64.708 147.857C64.2747 148.056 63.8067 148.156 63.304 148.156C62.8533 148.156 62.433 148.078 62.043 147.922C61.6617 147.757 61.3323 147.532 61.055 147.246C60.7777 146.96 60.5567 146.622 60.392 146.232C60.236 145.842 60.158 145.417 60.158 144.958C60.158 144.499 60.236 144.074 60.392 143.684C60.548 143.294 60.7647 142.956 61.042 142.67C61.3193 142.384 61.6443 142.163 62.017 142.007C62.3897 141.842 62.7927 141.76 63.226 141.76C63.7027 141.76 64.123 141.842 64.487 142.007C64.851 142.163 65.1543 142.38 65.397 142.657C65.6397 142.926 65.8217 143.242 65.943 143.606C66.073 143.97 66.138 144.36 66.138 144.776Z" fill="#4F4F4F"/>
<g filter="url(#filter0_d_1_63)">
<rect x="4" width="48" height="48" rx="8" fill="white"/>
</g>
<path d="M20 26.5V31.9C20 33.6 21.39 35 23.1 35H32.9C34.6 35 36 33.61 36 31.9V26.5C36 26.22 35.78 26 35.5 26H20.5C20.22 26 20 26.22 20 26.5ZM24.88 31.38C24.65 31.62 24.33 31.75 24 31.75C23.92 31.75 23.84 31.74 23.76 31.73C23.68 31.71 23.6 31.69 23.52 31.65C23.45 31.62 23.37 31.58 23.31 31.54C23.24 31.49 23.17 31.44 23.12 31.38C22.88 31.15 22.75 30.83 22.75 30.5C22.75 30.17 22.88 29.85 23.12 29.62C23.17 29.56 23.24 29.51 23.31 29.46C23.37 29.42 23.45 29.38 23.52 29.35C23.6 29.31 23.68 29.29 23.76 29.27C24.16 29.19 24.59 29.33 24.88 29.62C25.12 29.85 25.25 30.17 25.25 30.5C25.25 30.83 25.12 31.15 24.88 31.38ZM32.88 31.38C32.83 31.44 32.76 31.49 32.69 31.54C32.63 31.58 32.55 31.62 32.48 31.65C32.4 31.69 32.32 31.71 32.25 31.73C32.16 31.74 32.08 31.75 32 31.75C31.92 31.75 31.84 31.74 31.76 31.73C31.68 31.71 31.6 31.69 31.52 31.65C31.45 31.62 31.37 31.58 31.31 31.54C31.24 31.49 31.17 31.44 31.12 31.38C30.88 31.15 30.75 30.83 30.75 30.5C30.75 30.17 30.88 29.85 31.12 29.62C31.17 29.56 31.24 29.51 31.31 29.46C31.37 29.42 31.45 29.38 31.52 29.35C31.6 29.31 31.68 29.29 31.76 29.27C31.92 29.24 32.08 29.24 32.25 29.27C32.32 29.29 32.4 29.31 32.48 29.35C32.55 29.38 32.63 29.42 32.69 29.46C32.76 29.51 32.83 29.56 32.88 29.62C33.12 29.85 33.25 30.17 33.25 30.5C33.25 30.83 33.12 31.15 32.88 31.38Z" fill="#647B64"/>
<path d="M32.9 15H23.1C21.39 15 20 16.39 20 18.1V20.5C20 20.78 20.22 21 20.5 21H35.5C35.78 21 36 20.78 36 20.5V18.1C36 16.39 34.61 15 32.9 15ZM30.5 18.75H25.5C25.09 18.75 24.75 18.41 24.75 18C24.75 17.59 25.09 17.25 25.5 17.25H30.5C30.91 17.25 31.25 17.59 31.25 18C31.25 18.41 30.91 18.75 30.5 18.75Z" fill="#647B64"/>
<path d="M35.5 25H20.5C20.22 25 20 24.78 20 24.5V22.5C20 22.22 20.22 22 20.5 22H35.5C35.78 22 36 22.22 36 22.5V24.5C36 24.78 35.78 25 35.5 25Z" fill="#647B64"/>
<defs>
<filter id="filter0_d_1_63" x="0" y="0" width="56" height="56" filterUnits="userSpaceOnUse" color-interpolation-filters="sRGB">
<feFlood flood-opacity="0" result="BackgroundImageFix"/>
<feColorMatrix in="SourceAlpha" type="matrix" values="0 0 0 0 0 0 0 0 0 0 0 0 0 0 0 0 0 0 127 0" result="hardAlpha"/>
<feOffset dy="4"/>
<feGaussianBlur stdDeviation="2"/>
<feColorMatrix type="matrix" values="0 0 0 0 0 0 0 0 0 0 0 0 0 0 0 0 0 0 0.04 0"/>
<feBlend mode="normal" in2="BackgroundImageFix" result="effect1_dropShadow_1_63"/>
<feBlend mode="normal" in="SourceGraphic" in2="effect1_dropShadow_1_63" result="shape"/>
</filter>
</defs>
</svg>
